<?xml version="1.0" encoding="utf-8"?>
<!-- Generator: Adobe Illustrator 16.0.3, SVG Export Plug-In . SVG Version: 6.00 Build 0)  -->
<!DOCTYPE svg PUBLIC "-//W3C//DTD SVG 1.1//EN" "http://www.w3.org/Graphics/SVG/1.1/DTD/svg11.dtd">
<svg version="1.1" id="Calque_1" xmlns="http://www.w3.org/2000/svg" xmlns:xlink="http://www.w3.org/1999/xlink" x="0px" y="0px"
	 width="141.73px" height="141.73px" viewBox="0 0 141.73 141.73" enable-background="new 0 0 141.73 141.73" xml:space="preserve">
<path fill-rule="evenodd" clip-rule="evenodd" fill="#FFFFFF" d="M114.449,72.202c-0.021,0.146-0.061,0.291-0.064,0.436
	c-0.009,0.322,0.018,0.646-0.006,0.967c-0.053,0.717-0.127,1.432-0.193,2.148c-0.045,0.479-0.076,0.959-0.142,1.436
	c-0.06,0.436-0.154,0.867-0.24,1.303c-0.139,0.701-0.265,1.406-0.429,2.102c-0.127,0.541-0.305,1.07-0.455,1.605
	c-0.182,0.654-0.334,1.318-0.547,1.963c-0.229,0.701-0.502,1.389-0.777,2.074c-0.377,0.943-0.746,1.893-1.174,2.814
	c-0.471,1.008-0.968,2.006-1.521,2.969c-0.617,1.072-1.274,2.125-1.979,3.143c-0.713,1.029-1.5,2.01-2.265,3.004
	c-1.165,1.51-2.52,2.85-3.903,4.15c-1.025,0.963-2.11,1.871-3.237,2.711c-1.387,1.033-2.803,2.039-4.282,2.93
	c-1.357,0.818-2.807,1.484-4.23,2.189c-0.688,0.34-1.398,0.646-2.12,0.91c-1.075,0.395-2.166,0.748-3.258,1.098
	c-0.721,0.229-1.449,0.438-2.183,0.623c-0.598,0.15-1.208,0.25-1.812,0.377c-0.435,0.092-0.866,0.203-1.304,0.277
	c-0.568,0.1-1.141,0.174-1.713,0.254c-0.635,0.09-1.27,0.174-1.905,0.26c-0.032,0.004-0.065,0.008-0.099,0.008
	c-0.875,0.021-1.748,0.051-2.622,0.059c-0.095,0-0.239-0.102-0.277-0.191c-0.202-0.475-0.364-0.967-0.566-1.439
	c-0.393-0.922-0.811-1.834-1.205-2.754c-0.254-0.592-0.506-1.186-0.719-1.791c-0.163-0.465-0.256-0.955-0.393-1.428
	c-0.194-0.674-0.405-1.34-0.601-2.012c-0.331-1.137-1.084-2-1.843-2.861c-0.108-0.121-0.241-0.238-0.304-0.383
	c-0.063-0.146-0.127-0.371-0.059-0.479c0.523-0.826,1.036-1.668,1.645-2.43c0.309-0.387,0.797-0.637,1.224-0.92
	c0.505-0.336,0.995-0.676,1.276-1.242c0.067-0.135,0.148-0.277,0.354-0.146c0.712,0.459,1.411,0.939,2.149,1.35
	c1.262,0.701,2.541,1.375,3.832,2.023c0.704,0.354,1.457,0.43,2.242,0.227c0.713-0.182,1.336-0.496,1.796-1.068
	c0.446-0.553,0.804-1.164,0.824-1.902c0.009-0.336,0.191-0.559,0.437-0.732c0.461-0.33,0.968-0.523,1.555-0.492
	c0.293,0.016,0.595-0.016,0.885-0.07c0.617-0.117,0.92-0.717,0.695-1.328c-0.026-0.068-0.025-0.148-0.041-0.258
	c0.152,0,0.306-0.045,0.408,0.008c0.436,0.225,0.791,0.104,1.144-0.18c0.322-0.26,0.446-0.629,0.444-0.996
	c-0.006-0.857,0.456-1.459,1.059-1.943c0.178-0.143,0.589-0.068,0.867,0.006c0.581,0.152,1.134,0.426,1.719,0.553
	c0.885,0.191,2.106-0.652,2.297-1.553c0.162-0.756,0.254-1.5,0.105-2.299c-0.142-0.75,0.004-1.553-0.041-2.328
	c-0.055-0.979-0.096-1.959-0.489-2.889c-0.162-0.381-0.231-0.803-0.342-1.207c0.03-0.025,0.061-0.051,0.091-0.076
	c0.175,0.082,0.351,0.164,0.525,0.248c0.857,0.408,1.694,0.869,2.578,1.209c0.742,0.285,1.543,0.406,2.339,0.514
	c0.841,0.113,1.655,0.021,2.483-0.119c1.865-0.32,3.49-1.172,5.035-2.209c0.293-0.195,0.616-0.229,0.931-0.332
	c0.726-0.238,1.458-0.484,2.133-0.834c0.86-0.445,1.657-1.01,2.218-1.834c0.336-0.49,0.277-0.729-0.225-1.057
	c-1.301-0.85-2.599-1.709-3.906-2.553c-1.289-0.832-2.586-1.65-3.879-2.473c-1.053-0.67-2.096-1.357-3.165-1.998
	c-0.573-0.346-0.897-0.814-1.056-1.45c-0.15-0.608-0.364-1.199-0.543-1.8c-0.199-0.663-0.388-1.329-0.587-1.991
	c-0.151-0.505-0.306-1.012-0.472-1.513c-0.297-0.895-0.6-1.786-0.91-2.676c-0.302-0.867-0.623-1.728-0.924-2.595
	c-0.416-1.2-0.904-2.358-1.609-3.428c-0.887-1.34-1.813-2.64-3.016-3.72c-0.342-0.307-0.703-0.591-1.069-0.868
	c-0.599-0.456-1.19-0.923-1.815-1.34c-0.631-0.42-1.299-0.783-1.947-1.178c-0.14-0.085-0.256-0.206-0.391-0.3
	c-0.293-0.199-0.574-0.395-0.953-0.461c-0.293-0.052-0.545-0.305-0.831-0.429c-0.403-0.174-0.83-0.293-1.228-0.477
	c-0.15-0.07-0.277-0.236-0.365-0.388c-0.279-0.49-0.771-0.625-1.246-0.808c-0.451-0.175-0.846-0.001-1.268,0.108
	c-0.188,0.049-0.418-0.066-0.629-0.11c-0.423-0.086-0.842-0.23-1.268-0.25c-1.205-0.054-2.414-0.083-3.621-0.067
	c-0.687,0.01-1.375,0.104-2.059,0.196c-0.631,0.084-1.261,0.195-1.881,0.335c-0.521,0.117-1.029,0.296-1.544,0.441
	c-0.664,0.188-1.339,0.343-1.991,0.563c-0.376,0.126-0.723,0.342-1.073,0.535c-0.598,0.33-1.205,0.624-1.892,0.729
	c-0.176,0.027-0.337,0.142-0.513,0.183c-0.08,0.02-0.218-0.019-0.259-0.079c-0.038-0.056-0.012-0.203,0.04-0.261
	c0.201-0.227,0.438-0.421,0.634-0.652c0.287-0.338,0.675-0.477,1.067-0.633c0.228-0.092,0.285-0.325,0.188-0.563
	c-0.045-0.11-0.106-0.214-0.14-0.28c0.167-0.303,0.37-0.567,0.46-0.865c0.067-0.225,0.028-0.503-0.03-0.74
	c-0.081-0.328-0.183-0.666-0.353-0.953c-0.175-0.294-0.438-0.544-0.816-0.583c-0.133-0.013-0.29-0.028-0.402,0.026
	c-0.282,0.138-0.346-0.03-0.403-0.237c-0.008-0.032-0.017-0.065-0.016-0.098c0.01-0.262,0.021-0.53-0.311-0.605
	c-0.316-0.071-0.621,0.114-0.844,0.404c-0.071,0.094-0.274,0.09-0.419,0.125c-0.176,0.042-0.375,0.15-0.523,0.104
	c-0.323-0.102-0.628,0.094-0.922,0.009c-0.164-0.048-0.338-0.194-0.425-0.345c-0.252-0.434-0.642-0.7-1.053-0.94
	c-0.124-0.073-0.295-0.065-0.479-0.099c-0.112-0.131-0.253-0.319-0.421-0.479c-0.199-0.187-0.443-0.165-0.698-0.117
	c-0.127,0.023-0.292,0-0.401-0.067c-0.246-0.15-0.396-0.008-0.542,0.139c-0.155,0.156-0.396,0.293-0.266,0.52
	c0.145-0.109,0.276-0.228,0.426-0.314c0.072-0.043,0.23-0.067,0.259-0.03c0.057,0.075,0.088,0.205,0.066,0.299
	c-0.039,0.167-0.104,0.338-0.197,0.48c-0.146,0.224-0.003,0.381,0.125,0.482c0.138,0.112,0.287,0.009,0.362-0.149
	c0.09-0.189,0.162-0.39,0.263-0.573c0.051-0.095,0.146-0.166,0.221-0.249c0.101,0.113,0.3,0.245,0.283,0.338
	c-0.047,0.265-0.182,0.514-0.272,0.744c0.125,0.037,0.241,0.072,0.358,0.105c-0.072,0.153-0.108,0.345-0.225,0.449
	c-0.173,0.156-0.391,0.282-0.61,0.367c-0.346,0.134-0.459,0.4-0.536,0.726c-0.041,0.174-0.123,0.356-0.238,0.491
	c-0.244,0.285-0.529,0.538-0.449,0.982c-0.316-0.027-0.597-0.018-0.858-0.082c-0.277-0.068-0.135-0.293-0.034-0.382
	c0.4-0.35,0.315-0.754,0.143-1.151c-0.084-0.194-0.072-0.488-0.388-0.534c-0.031-0.005-0.069-0.129-0.063-0.193
	c0.067-0.651-0.04-1.218-0.57-1.69c-0.324-0.288-0.546-0.69-0.813-1.042c-0.342,0.257-0.978,0.134-1.382-0.247
	c-0.041,0.031-0.087,0.097-0.134,0.097c-0.254,0.003-0.436,0.158-0.42,0.37c0.018,0.217,0.135,0.461,0.284,0.624
	c0.205,0.227,0.221,0.326-0.037,0.496c-0.079,0.052-0.106,0.178-0.168,0.264c-0.141,0.198-0.361,0.376-0.41,0.593
	c-0.05,0.221,0.085,0.478,0.103,0.721c0.008,0.103-0.06,0.226-0.126,0.314c-0.213,0.283-0.458,0.544-0.658,0.836
	c-0.148,0.216-0.277,0.291-0.451,0.056c-0.269-0.361-0.628-0.54-1.069-0.59c-0.088-0.01-0.181-0.069-0.248-0.132
	c-0.224-0.207-0.437-0.425-0.653-0.639c-0.203-0.202-0.401-0.158-0.592,0.017c-0.099,0.091-0.188,0.188-0.285,0.28
	c-0.223,0.217-0.453,0.206-0.647-0.027c-0.179-0.213-0.338-0.447-0.542-0.633c-0.086-0.079-0.314-0.123-0.393-0.066
	c-0.265,0.195-0.522,0.412-0.602,0.773c-0.063,0.288,0.125,0.698,0.414,0.762c0.332,0.072,0.661,0.105,0.802,0.5
	c0.064,0.182,0.205,0.135,0.367,0.042c0.282-0.161,0.586-0.297,0.896-0.395c0.19-0.061,0.373-0.028,0.44,0.254
	c0.049,0.199,0.215,0.37,0.336,0.566c-0.307,0.267-0.576,0.5-0.846,0.735c-0.034,0.029-0.078,0.058-0.093,0.095
	c-0.222,0.545-0.605,0.444-1.012,0.259c-0.039-0.018-0.09-0.058-0.119-0.047c-0.57,0.232-1.318,0.138-1.642,0.834
	c-0.124,0.267-0.189,0.563-0.269,0.85c-0.04,0.146-0.007,0.333-0.088,0.438c-0.085,0.108-0.263,0.171-0.41,0.2
	c-0.307,0.062-0.632,0.052-0.929,0.14c-0.275,0.08-0.326,0.367-0.227,0.719c0.047,0.166,0.054,0.348,0.046,0.521
	c-0.01,0.243,0.285,0.761,0.535,0.816c0.196,0.044,0.359,0.171,0.626,0.04c0.338-0.166,0.863,0.127,0.772,0.461
	c-0.031,0.115-0.103,0.221-0.166,0.324c-0.045,0.073-0.129,0.127-0.156,0.204c-0.159,0.449-0.517,0.554-0.907,0.246
	c-0.181-0.144-0.354-0.297-0.521-0.453c-0.293-0.274-0.916-0.314-1.159-0.001c-0.195,0.251-0.285,0.588-0.417,0.887
	c-0.052,0.117-0.097,0.237-0.135,0.359c-0.083,0.272-0.033,0.507,0.12,0.764c0.127,0.211,0.128,0.495,0.2,0.742
	c0.08,0.273,0.214,0.321,0.451,0.165c0.19-0.124,0.372-0.261,0.58-0.408c0.229,0.45,0.653,0.804,0.574,1.358
	c-0.056,0.395-0.164,0.782-0.256,1.171c-0.046,0.199-0.18,0.382-0.008,0.595c0.188,0.23,0.063,0.449-0.065,0.665
	c-0.173,0.291-0.368,0.545-0.28,0.952c0.141,0.651,0.56,1.071,1.042,1.434c0.129,0.097,0.43-0.051,0.652-0.064
	c0.199-0.011,0.417-0.036,0.597,0.027c0.262,0.092,0.5,0.255,0.742,0.396c0.095,0.056,0.177,0.135,0.23,0.177
	c-0.353,0.148-0.68,0.291-1.014,0.422c-0.049,0.02-0.146,0.003-0.177-0.033c-0.359-0.425-0.734-0.215-1.119-0.052
	c-0.187,0.079-0.386,0.139-0.585,0.162c-0.1,0.011-0.241-0.052-0.31-0.128c-0.26-0.291-0.447-0.3-0.709,0.004
	c-0.065,0.074-0.129,0.15-0.188,0.231c-0.05,0.069-0.091,0.146-0.152,0.246c0.097,0.124,0.201,0.262,0.312,0.395
	c0.034,0.041,0.099,0.104,0.127,0.095c0.45-0.154,0.426,0.223,0.491,0.456c0.087,0.31,0.284,0.523,0.594,0.506
	c0.267-0.015,0.369,0.098,0.42,0.344c0.095,0.469,0.268,0.528,0.746,0.37c0.121-0.04,0.292,0.072,0.442,0.115
	c-0.254,0.512-0.13,0.98,0.318,1.311c0.092,0.067,0.144,0.19,0.187,0.252c0.38,0.065,0.756,0.131,1.172,0.204
	c-0.059,0.075-0.09,0.159-0.132,0.164c-0.403,0.054-0.42,0.249-0.162,0.55c-0.145,0.02-0.239,0.032-0.335,0.044
	c0.019,0.017,0.037,0.031,0.056,0.047c-0.134,0.159-0.252,0.337-0.404,0.476c-0.686,0.622-0.699,0.851-0.067,1.525
	c0.015,0.016,0.023,0.036,0.048,0.073c-0.044,0.052-0.081,0.141-0.142,0.16c-0.317,0.106-0.359,0.409-0.425,0.653
	c-0.065,0.24-0.15,0.511,0.034,0.771c0.062,0.088,0.009,0.258,0.009,0.477c0.229-0.461,0.361-0.158,0.504-0.021
	c0.351,0.336,0.709,0.369,1.047,0.08c0.043-0.037,0.089-0.107,0.085-0.16c-0.037-0.496,0.203-0.889,0.503-1.237
	c0.094-0.109,0.315-0.098,0.463-0.172c0.309-0.154,0.474-0.409,0.457-0.814c0.398,0.041,0.828,0.201,1.124-0.239
	c0.231-0.343,0.439-0.679,0.253-1.139c0.164,0,0.302,0,0.492,0c0.039,0.23,0.132,0.484,0.112,0.729
	c-0.037,0.471,0.269,0.703,0.559,0.964c0.054,0.048,0.121,0.129,0.113,0.187c-0.05,0.404,0.249,0.583,0.483,0.815
	c0.093,0.093,0.181,0.24,0.183,0.365c0.009,0.477,0.258,0.826,0.551,1.162c0.054,0.061,0.117,0.146,0.115,0.219
	c-0.013,0.439,0.354,0.939,0.804,1.068c0.051,0.016,0.102,0.041,0.153,0.045c0.16,0.012,0.363,0.074,0.469,0.002
	c0.083-0.057,0.045-0.287,0.068-0.523c0.309-0.105,0.387-0.418,0.329-0.805c-0.008-0.051,0.084-0.139,0.149-0.178
	c0.322-0.189,0.593-0.395,0.376-0.828c-0.011-0.021,0.012-0.061,0.025-0.119c0.184,0.031,0.361,0.063,0.573,0.098
	c-0.015,0.086,0,0.189-0.046,0.244c-0.293,0.336-0.343,0.775-0.486,1.17c-0.109,0.299-0.145,0.646-0.121,0.965
	c0.053,0.695,0.136,1.391,0.263,2.076c0.069,0.377,0.258,0.732,0.382,1.1c0.191,0.57,0.258,1.133-0.076,1.686
	c-0.059,0.098-0.068,0.271-0.022,0.375c0.111,0.246-0.018,0.352-0.185,0.482c-0.145,0.111-0.261,0.262-0.398,0.385
	c-0.052,0.045-0.132,0.09-0.195,0.086c-0.063-0.006-0.156-0.063-0.172-0.117c-0.132-0.438-0.428-0.721-0.823-0.918
	c-0.368-0.184-0.732-0.09-0.992,0.234c-0.059,0.07-0.167,0.117-0.261,0.143c-0.518,0.143-0.862,0.523-0.792,0.959
	c0.033,0.213,0.187,0.406,0.292,0.621c-0.311-0.018-0.472,0.148-0.519,0.475c-0.011,0.08-0.225,0.135-0.234,0.213
	c-0.031,0.252-0.068,0.529,0.012,0.758c0.078,0.225,0.322,0.305,0.585,0.207c0.045-0.016,0.124,0.047,0.182,0.082
	c0.198,0.125,0.411,0.373,0.59,0.352c0.262-0.033,0.56-0.213,0.726-0.422c0.119-0.15,0.049-0.451,0.063-0.699
	c0.416-0.012,0.845-0.074,1.247,0.189c0.268,0.178,0.323,0.42,0.113,0.672c-0.087,0.104-0.187,0.236-0.189,0.359
	c-0.008,0.486-0.271,0.852-0.503,1.242c-0.101,0.168-0.113,0.387-0.178,0.578c-0.058,0.174-0.137,0.338-0.195,0.51
	c-0.54,1.57-1.399,2.973-2.292,4.355c-0.643,0.996-1.323,1.969-2.009,2.936c-0.21,0.297-0.486,0.467-0.906,0.51
	c-0.651,0.064-1.29,0.273-1.927,0.449c-0.222,0.063-0.468,0.166-0.616,0.328c-0.189,0.207-0.34,0.479-0.421,0.75
	c-0.174,0.574-0.501,1.027-0.92,1.441c-0.491,0.484-0.975,0.98-1.423,1.504c-0.125,0.145-0.114,0.406-0.167,0.613
	c-0.015,0.061-0.017,0.137-0.054,0.178c-1.042,1.162-2.008,2.395-3.166,3.451c-0.22,0.201-0.295,0.238-0.52-0.027
	c-1.208-1.426-2.338-2.912-3.324-4.498c-0.82-1.316-1.586-2.672-2.306-4.047c-0.576-1.102-1.063-2.252-1.558-3.396
	c-0.24-0.553-0.406-1.139-0.603-1.713c-0.188-0.547-0.381-1.094-0.556-1.646c-0.159-0.506-0.304-1.018-0.442-1.529
	c-0.162-0.602-0.326-1.205-0.459-1.814c-0.096-0.436-0.138-0.881-0.212-1.32c-0.042-0.242-0.109-0.482-0.149-0.725
	c-0.067-0.42-0.128-0.84-0.182-1.262c-0.074-0.592-0.135-1.186-0.209-1.779c-0.033-0.264-0.084-0.525-0.126-0.787
	c0-2.201,0-4.402,0-6.604c0.023-0.177,0.048-0.355,0.072-0.533c0.087-0.623,0.169-1.245,0.263-1.866
	c0.125-0.836,0.252-1.671,0.392-2.504c0.078-0.469,0.181-0.932,0.277-1.397c0.063-0.307,0.122-0.616,0.21-0.917
	c0.14-0.483,0.302-0.961,0.453-1.441c0.267-0.843,0.504-1.697,0.806-2.527c0.32-0.88,0.687-1.744,1.062-2.604
	c0.388-0.89,0.761-1.792,1.225-2.642c0.662-1.21,1.371-2.396,2.117-3.557c0.676-1.051,1.402-2.073,2.158-3.067
	c0.601-0.79,1.266-1.532,1.929-2.272c0.678-0.755,1.358-1.515,2.093-2.215c0.864-0.821,1.77-1.602,2.688-2.361
	c0.807-0.665,1.638-1.308,2.495-1.905c0.97-0.677,1.973-1.309,2.979-1.932c0.663-0.411,1.343-0.805,2.043-1.148
	c1.006-0.496,2.032-0.953,3.06-1.406c0.688-0.303,1.39-0.58,2.092-0.851c0.491-0.189,0.993-0.354,1.493-0.52
	c0.504-0.166,1.007-0.34,1.519-0.477c0.67-0.18,1.348-0.326,2.021-0.487c0.631-0.149,1.258-0.326,1.895-0.443
	c0.768-0.141,1.546-0.216,2.315-0.347c1.256-0.213,2.521-0.318,3.793-0.33c0.101-0.001,0.201-0.043,0.302-0.064c1.2,0,2.4,0,3.602,0
	c0.023,0.02,0.045,0.057,0.068,0.058c0.609,0.033,1.219,0.06,1.828,0.092c0.383,0.021,0.767,0.026,1.146,0.075
	c0.667,0.089,1.333,0.201,1.998,0.31c0.751,0.122,1.506,0.227,2.249,0.385c0.824,0.177,1.642,0.396,2.457,0.614
	c0.821,0.221,1.643,0.443,2.452,0.703c0.679,0.217,1.351,0.462,2.007,0.737c1.229,0.516,2.46,1.03,3.661,1.604
	c0.909,0.435,1.806,0.91,2.649,1.458c1.525,0.988,3.014,2.033,4.501,3.076c1.393,0.979,2.643,2.132,3.847,3.326
	c0.913,0.905,1.791,1.849,2.625,2.826c0.856,1.004,1.7,2.03,2.443,3.119c0.986,1.443,1.902,2.937,2.779,4.448
	c0.564,0.969,1.02,2.003,1.491,3.022c0.281,0.607,0.502,1.243,0.749,1.867c0.141,0.358,0.289,0.716,0.417,1.079
	c0.2,0.569,0.396,1.141,0.577,1.716c0.145,0.465,0.271,0.935,0.396,1.404c0.143,0.531,0.285,1.063,0.404,1.599
	c0.152,0.688,0.285,1.379,0.422,2.07c0.086,0.433,0.183,0.865,0.243,1.302c0.065,0.476,0.097,0.957,0.142,1.435
	c0.066,0.718,0.137,1.436,0.193,2.154c0.021,0.277-0.004,0.557,0.006,0.834c0.008,0.168,0.043,0.334,0.064,0.502
	C114.449,70.425,114.449,71.313,114.449,72.202z"/>
<g>
</g>
<g>
</g>
<g>
</g>
<g>
</g>
<g>
</g>
<g>
</g>
</svg>
