<?xml version="1.0" encoding="utf-8"?>
<!-- Generator: Adobe Illustrator 16.0.3, SVG Export Plug-In . SVG Version: 6.00 Build 0)  -->
<!DOCTYPE svg PUBLIC "-//W3C//DTD SVG 1.1//EN" "http://www.w3.org/Graphics/SVG/1.1/DTD/svg11.dtd">
<svg version="1.1" id="Calque_1" xmlns="http://www.w3.org/2000/svg" xmlns:xlink="http://www.w3.org/1999/xlink" x="0px" y="0px"
	 width="141.73px" height="141.73px" viewBox="0 0 141.73 141.73" enable-background="new 0 0 141.73 141.73" xml:space="preserve">
<path fill-rule="evenodd" clip-rule="evenodd" fill="#010202" d="M106.234,71.951c-0.018,0.118-0.047,0.235-0.051,0.354
	c-0.008,0.262,0.014,0.524-0.006,0.784c-0.043,0.582-0.102,1.162-0.156,1.743c-0.035,0.39-0.061,0.778-0.115,1.164
	c-0.049,0.354-0.125,0.705-0.193,1.058c-0.113,0.569-0.215,1.142-0.348,1.706c-0.104,0.438-0.248,0.868-0.371,1.304
	c-0.148,0.531-0.271,1.07-0.443,1.593c-0.188,0.568-0.408,1.127-0.631,1.684c-0.307,0.765-0.605,1.537-0.953,2.283
	c-0.381,0.818-0.785,1.628-1.234,2.409c-0.5,0.871-1.035,1.725-1.605,2.551c-0.58,0.836-1.217,1.632-1.838,2.438
	c-0.945,1.227-2.045,2.313-3.168,3.369c-0.832,0.78-1.713,1.517-2.627,2.198c-1.125,0.839-2.275,1.655-3.475,2.379
	c-1.102,0.664-2.279,1.205-3.434,1.775c-0.559,0.277-1.135,0.525-1.721,0.74c-0.873,0.319-1.758,0.607-2.645,0.891
	c-0.584,0.187-1.176,0.355-1.771,0.505c-0.484,0.123-0.979,0.204-1.469,0.307c-0.354,0.073-0.703,0.164-1.059,0.226
	c-0.461,0.08-0.926,0.141-1.391,0.206c-0.514,0.072-1.03,0.141-1.545,0.21c-0.027,0.004-0.055,0.005-0.082,0.007
	c-0.709,0.018-1.418,0.041-2.126,0.047c-0.077,0.001-0.194-0.082-0.225-0.155c-0.164-0.385-0.295-0.784-0.459-1.168
	c-0.319-0.748-0.658-1.488-0.979-2.235c-0.206-0.479-0.41-0.962-0.583-1.454c-0.133-0.377-0.207-0.773-0.318-1.158
	c-0.158-0.546-0.329-1.087-0.488-1.632c-0.269-0.923-0.879-1.623-1.495-2.321c-0.088-0.1-0.196-0.193-0.247-0.313
	c-0.051-0.117-0.103-0.301-0.047-0.388c0.425-0.671,0.841-1.354,1.335-1.973c0.25-0.313,0.646-0.515,0.992-0.745
	c0.41-0.272,0.808-0.549,1.036-1.008c0.055-0.109,0.121-0.227,0.288-0.119c0.578,0.372,1.145,0.762,1.745,1.095
	c1.023,0.569,2.063,1.115,3.109,1.642c0.572,0.288,1.183,0.349,1.82,0.185c0.577-0.147,1.083-0.402,1.457-0.867
	c0.361-0.449,0.652-0.943,0.668-1.544c0.008-0.272,0.156-0.453,0.354-0.595c0.375-0.267,0.787-0.424,1.262-0.398
	c0.238,0.012,0.484-0.014,0.719-0.058c0.502-0.095,0.746-0.582,0.564-1.078c-0.021-0.056-0.02-0.12-0.033-0.208
	c0.123,0,0.248-0.037,0.332,0.006c0.354,0.183,0.643,0.083,0.928-0.146c0.26-0.211,0.361-0.51,0.359-0.809
	c-0.004-0.696,0.371-1.184,0.859-1.576c0.145-0.115,0.479-0.056,0.703,0.005c0.473,0.124,0.922,0.345,1.396,0.448
	c0.719,0.156,1.709-0.53,1.865-1.261c0.131-0.613,0.205-1.216,0.084-1.865c-0.115-0.609,0.004-1.26-0.033-1.89
	c-0.045-0.793-0.078-1.59-0.396-2.345c-0.133-0.31-0.188-0.651-0.277-0.979c0.023-0.021,0.049-0.041,0.072-0.063
	c0.143,0.067,0.285,0.134,0.428,0.202c0.695,0.331,1.375,0.704,2.092,0.98c0.602,0.232,1.252,0.329,1.898,0.417
	c0.682,0.092,1.344,0.018,2.016-0.097c1.514-0.26,2.832-0.95,4.084-1.792c0.24-0.16,0.502-0.186,0.756-0.27
	c0.59-0.192,1.186-0.395,1.732-0.678c0.697-0.362,1.344-0.819,1.799-1.487c0.273-0.399,0.227-0.592-0.182-0.857
	c-1.057-0.69-2.109-1.388-3.17-2.072c-1.045-0.675-2.098-1.339-3.148-2.007c-0.855-0.544-1.701-1.102-2.568-1.623
	c-0.465-0.278-0.729-0.659-0.857-1.176c-0.121-0.493-0.295-0.974-0.441-1.461c-0.16-0.538-0.314-1.078-0.475-1.615
	c-0.123-0.411-0.248-0.821-0.383-1.229c-0.242-0.726-0.486-1.449-0.738-2.171c-0.246-0.703-0.506-1.401-0.75-2.106
	c-0.338-0.974-0.734-1.914-1.307-2.781c-0.719-1.088-1.471-2.143-2.447-3.019c-0.277-0.249-0.57-0.479-0.867-0.705
	c-0.486-0.37-0.967-0.748-1.475-1.087c-0.512-0.341-1.053-0.636-1.58-0.956c-0.113-0.069-0.207-0.168-0.316-0.243
	c-0.238-0.162-0.467-0.319-0.773-0.374c-0.238-0.042-0.441-0.247-0.674-0.348c-0.328-0.142-0.674-0.238-0.996-0.387
	c-0.123-0.057-0.227-0.192-0.297-0.315c-0.227-0.397-0.625-0.508-1.012-0.655c-0.365-0.142-0.686,0-1.028,0.089
	c-0.152,0.039-0.34-0.055-0.511-0.089c-0.343-0.07-0.683-0.188-1.027-0.204c-0.979-0.043-1.96-0.067-2.939-0.056
	c-0.557,0.009-1.116,0.086-1.67,0.16c-0.512,0.068-1.023,0.159-1.527,0.272c-0.423,0.095-0.835,0.24-1.253,0.358
	c-0.539,0.151-1.086,0.276-1.616,0.456c-0.305,0.102-0.586,0.277-0.87,0.435c-0.486,0.268-0.979,0.507-1.535,0.592
	c-0.143,0.021-0.274,0.116-0.417,0.148c-0.065,0.015-0.176-0.017-0.209-0.064c-0.031-0.045-0.01-0.165,0.032-0.212
	c0.163-0.184,0.356-0.342,0.514-0.528c0.233-0.275,0.547-0.387,0.866-0.515c0.186-0.074,0.232-0.264,0.153-0.458
	c-0.036-0.09-0.086-0.174-0.114-0.228c0.136-0.245,0.3-0.459,0.373-0.701c0.056-0.183,0.023-0.408-0.024-0.602
	c-0.065-0.266-0.148-0.539-0.287-0.772c-0.141-0.24-0.354-0.442-0.661-0.474c-0.109-0.011-0.236-0.021-0.328,0.022
	c-0.229,0.111-0.28-0.025-0.327-0.193c-0.007-0.026-0.014-0.054-0.013-0.08c0.007-0.211,0.017-0.428-0.252-0.489
	c-0.257-0.059-0.504,0.092-0.685,0.327c-0.057,0.075-0.222,0.072-0.339,0.102c-0.143,0.034-0.304,0.122-0.425,0.084
	c-0.262-0.083-0.51,0.076-0.749,0.007c-0.133-0.039-0.274-0.158-0.345-0.279c-0.204-0.353-0.521-0.569-0.854-0.765
	c-0.1-0.059-0.239-0.052-0.388-0.081c-0.091-0.104-0.205-0.258-0.342-0.387c-0.161-0.151-0.358-0.133-0.565-0.095
	c-0.104,0.02-0.237,0-0.326-0.055c-0.2-0.123-0.321-0.006-0.44,0.112c-0.125,0.127-0.322,0.238-0.216,0.422
	c0.118-0.089,0.225-0.186,0.346-0.256c0.059-0.034,0.188-0.055,0.209-0.025c0.046,0.062,0.072,0.168,0.055,0.243
	c-0.033,0.136-0.085,0.274-0.161,0.391c-0.118,0.181-0.002,0.309,0.102,0.392c0.112,0.091,0.233,0.006,0.294-0.122
	c0.073-0.153,0.132-0.315,0.213-0.464c0.041-0.078,0.118-0.136,0.179-0.203c0.082,0.093,0.244,0.199,0.23,0.274
	c-0.038,0.215-0.148,0.417-0.221,0.604c0.101,0.03,0.196,0.059,0.29,0.086c-0.058,0.124-0.087,0.28-0.182,0.364
	c-0.141,0.127-0.317,0.229-0.495,0.298c-0.281,0.11-0.373,0.324-0.436,0.589c-0.034,0.142-0.1,0.289-0.193,0.398
	c-0.199,0.231-0.43,0.438-0.366,0.798c-0.256-0.021-0.483-0.015-0.696-0.066c-0.225-0.056-0.109-0.238-0.027-0.31
	c0.325-0.284,0.256-0.612,0.116-0.935c-0.068-0.158-0.059-0.396-0.315-0.435c-0.024-0.003-0.056-0.104-0.05-0.156
	c0.055-0.528-0.033-0.987-0.464-1.371c-0.262-0.234-0.442-0.562-0.66-0.847c-0.276,0.209-0.793,0.109-1.121-0.2
	c-0.034,0.025-0.071,0.078-0.109,0.078c-0.207,0.003-0.354,0.128-0.34,0.301c0.014,0.177,0.109,0.374,0.23,0.507
	c0.167,0.184,0.179,0.265-0.03,0.402c-0.065,0.042-0.087,0.145-0.136,0.214c-0.115,0.161-0.293,0.305-0.334,0.481
	c-0.04,0.179,0.07,0.387,0.084,0.585c0.006,0.083-0.048,0.184-0.103,0.255c-0.172,0.229-0.372,0.441-0.534,0.679
	c-0.12,0.174-0.225,0.235-0.366,0.045c-0.219-0.293-0.51-0.438-0.868-0.479c-0.07-0.009-0.146-0.057-0.201-0.106
	c-0.181-0.169-0.354-0.345-0.529-0.52c-0.166-0.163-0.326-0.128-0.481,0.015c-0.079,0.072-0.152,0.152-0.231,0.228
	c-0.181,0.175-0.368,0.166-0.525-0.021c-0.145-0.174-0.274-0.364-0.44-0.515c-0.07-0.064-0.255-0.101-0.317-0.055
	c-0.216,0.159-0.425,0.334-0.489,0.628c-0.051,0.233,0.101,0.567,0.335,0.618c0.27,0.059,0.537,0.086,0.651,0.406
	c0.052,0.146,0.167,0.109,0.298,0.033c0.229-0.13,0.476-0.24,0.727-0.32c0.154-0.049,0.303-0.022,0.357,0.207
	c0.039,0.161,0.173,0.3,0.272,0.459c-0.249,0.217-0.467,0.406-0.687,0.597c-0.027,0.024-0.063,0.047-0.076,0.077
	c-0.179,0.442-0.49,0.36-0.82,0.21c-0.032-0.015-0.073-0.047-0.097-0.038c-0.463,0.189-1.07,0.112-1.332,0.677
	c-0.101,0.217-0.154,0.457-0.218,0.69c-0.032,0.117-0.005,0.271-0.071,0.355c-0.069,0.088-0.213,0.139-0.333,0.162
	c-0.25,0.05-0.513,0.042-0.754,0.113c-0.223,0.065-0.265,0.298-0.184,0.584c0.038,0.134,0.044,0.282,0.038,0.422
	c-0.009,0.197,0.231,0.617,0.434,0.662c0.159,0.036,0.291,0.139,0.508,0.032c0.274-0.134,0.701,0.104,0.627,0.375
	c-0.026,0.094-0.083,0.179-0.135,0.263c-0.036,0.06-0.105,0.104-0.126,0.165c-0.13,0.365-0.419,0.45-0.736,0.2
	c-0.146-0.116-0.287-0.24-0.424-0.368c-0.237-0.223-0.743-0.254-0.94,0c-0.16,0.204-0.232,0.476-0.339,0.721
	c-0.042,0.095-0.079,0.191-0.109,0.29c-0.068,0.222-0.027,0.412,0.097,0.621c0.103,0.171,0.104,0.401,0.163,0.602
	c0.065,0.222,0.173,0.261,0.366,0.135c0.155-0.101,0.302-0.213,0.471-0.332c0.186,0.365,0.53,0.651,0.467,1.103
	c-0.046,0.319-0.134,0.635-0.208,0.95c-0.039,0.161-0.147,0.311-0.008,0.482c0.153,0.187,0.052,0.364-0.053,0.54
	c-0.14,0.235-0.299,0.442-0.228,0.773c0.115,0.527,0.454,0.868,0.846,1.161c0.104,0.079,0.349-0.04,0.529-0.051
	c0.162-0.009,0.339-0.029,0.485,0.021c0.212,0.074,0.405,0.207,0.602,0.322c0.077,0.045,0.143,0.109,0.187,0.144
	c-0.286,0.12-0.552,0.236-0.823,0.342c-0.039,0.016-0.119,0.004-0.144-0.027c-0.291-0.345-0.595-0.173-0.907-0.041
	c-0.151,0.063-0.314,0.112-0.475,0.131c-0.081,0.009-0.195-0.041-0.251-0.104c-0.211-0.236-0.362-0.243-0.576,0.004
	c-0.052,0.06-0.104,0.122-0.151,0.187c-0.041,0.058-0.074,0.12-0.124,0.201c0.079,0.1,0.163,0.212,0.253,0.319
	c0.028,0.033,0.079,0.085,0.103,0.076c0.366-0.125,0.346,0.182,0.399,0.37c0.071,0.252,0.231,0.425,0.482,0.411
	c0.217-0.012,0.3,0.08,0.341,0.279c0.077,0.38,0.217,0.429,0.605,0.3c0.098-0.032,0.237,0.059,0.359,0.094
	c-0.206,0.416-0.105,0.796,0.258,1.064c0.075,0.055,0.117,0.154,0.152,0.204c0.308,0.053,0.613,0.106,0.951,0.165
	c-0.048,0.062-0.073,0.13-0.107,0.134c-0.327,0.042-0.34,0.202-0.131,0.445c-0.118,0.017-0.195,0.026-0.272,0.036
	c0.015,0.014,0.03,0.025,0.045,0.038c-0.109,0.13-0.205,0.273-0.329,0.386c-0.556,0.504-0.567,0.69-0.055,1.238
	c0.012,0.013,0.019,0.029,0.039,0.06c-0.035,0.042-0.065,0.113-0.114,0.13c-0.258,0.086-0.291,0.331-0.345,0.53
	c-0.053,0.195-0.122,0.414,0.028,0.626c0.05,0.072,0.007,0.209,0.007,0.388c0.186-0.374,0.293-0.129,0.409-0.019
	c0.285,0.272,0.575,0.3,0.849,0.065c0.036-0.03,0.072-0.087,0.069-0.129c-0.031-0.404,0.165-0.723,0.408-1.006
	c0.076-0.089,0.256-0.08,0.376-0.14c0.251-0.124,0.384-0.331,0.371-0.66c0.323,0.033,0.672,0.162,0.913-0.194
	c0.187-0.278,0.355-0.551,0.205-0.924c0.133,0,0.245,0,0.399,0c0.032,0.187,0.106,0.393,0.092,0.591
	c-0.031,0.383,0.217,0.571,0.453,0.782c0.043,0.039,0.098,0.104,0.092,0.152c-0.041,0.328,0.202,0.473,0.392,0.662
	c0.076,0.074,0.147,0.194,0.148,0.296c0.008,0.388,0.21,0.67,0.447,0.943c0.043,0.05,0.095,0.118,0.094,0.178
	c-0.011,0.356,0.287,0.762,0.652,0.867c0.041,0.012,0.082,0.033,0.125,0.037c0.13,0.009,0.295,0.061,0.381,0.001
	c0.066-0.047,0.036-0.233,0.055-0.425c0.25-0.087,0.313-0.339,0.267-0.653c-0.006-0.042,0.069-0.113,0.122-0.143
	c0.261-0.155,0.481-0.322,0.305-0.674c-0.009-0.018,0.009-0.049,0.02-0.098c0.149,0.025,0.294,0.051,0.466,0.081
	c-0.012,0.068,0,0.154-0.037,0.196c-0.237,0.273-0.279,0.632-0.395,0.951c-0.088,0.241-0.118,0.524-0.098,0.782
	c0.042,0.563,0.11,1.128,0.212,1.684c0.057,0.307,0.209,0.595,0.31,0.894c0.156,0.463,0.21,0.919-0.062,1.368
	c-0.047,0.079-0.056,0.222-0.018,0.305c0.09,0.199-0.015,0.286-0.15,0.391c-0.118,0.092-0.211,0.212-0.323,0.313
	c-0.042,0.037-0.108,0.073-0.159,0.07c-0.051-0.004-0.127-0.052-0.14-0.095c-0.107-0.355-0.347-0.585-0.668-0.745
	c-0.299-0.149-0.594-0.073-0.805,0.188c-0.047,0.059-0.135,0.096-0.212,0.117c-0.419,0.115-0.7,0.424-0.643,0.777
	c0.027,0.173,0.151,0.331,0.237,0.505c-0.252-0.014-0.383,0.121-0.42,0.385c-0.01,0.065-0.183,0.108-0.191,0.174
	c-0.024,0.203-0.055,0.429,0.01,0.613c0.063,0.183,0.262,0.249,0.475,0.169c0.036-0.013,0.1,0.038,0.146,0.066
	c0.162,0.102,0.333,0.304,0.479,0.285c0.211-0.028,0.454-0.172,0.588-0.342c0.097-0.122,0.039-0.367,0.051-0.567
	c0.337-0.011,0.686-0.062,1.012,0.153c0.217,0.144,0.263,0.342,0.092,0.546c-0.07,0.083-0.151,0.192-0.153,0.291
	c-0.007,0.395-0.221,0.69-0.409,1.008c-0.082,0.137-0.092,0.313-0.144,0.47c-0.047,0.141-0.111,0.273-0.159,0.413
	c-0.438,1.274-1.135,2.413-1.859,3.536c-0.521,0.808-1.075,1.597-1.63,2.382c-0.171,0.24-0.395,0.378-0.736,0.413
	c-0.528,0.053-1.046,0.221-1.563,0.364c-0.179,0.051-0.379,0.135-0.5,0.267c-0.154,0.168-0.275,0.39-0.341,0.608
	c-0.141,0.466-0.407,0.834-0.747,1.17c-0.398,0.394-0.791,0.796-1.156,1.22c-0.101,0.119-0.092,0.33-0.135,0.499
	c-0.012,0.049-0.014,0.109-0.044,0.145c-0.845,0.942-1.629,1.942-2.569,2.801c-0.179,0.162-0.24,0.192-0.422-0.022
	c-0.98-1.158-1.897-2.363-2.698-3.65c-0.666-1.068-1.287-2.168-1.871-3.284c-0.468-0.895-0.864-1.828-1.264-2.757
	c-0.195-0.449-0.33-0.926-0.489-1.39c-0.153-0.445-0.31-0.889-0.451-1.337c-0.13-0.41-0.248-0.825-0.359-1.24
	c-0.132-0.489-0.265-0.979-0.372-1.473c-0.078-0.354-0.112-0.716-0.173-1.072c-0.034-0.197-0.088-0.391-0.12-0.588
	c-0.055-0.34-0.105-0.682-0.148-1.023c-0.061-0.48-0.11-0.964-0.17-1.444c-0.027-0.214-0.067-0.426-0.102-0.64
	c0-1.786,0-3.571,0-5.358c0.019-0.145,0.039-0.288,0.059-0.433c0.07-0.506,0.137-1.011,0.213-1.516
	c0.102-0.678,0.205-1.355,0.317-2.031c0.064-0.381,0.147-0.756,0.226-1.134c0.052-0.249,0.099-0.501,0.17-0.744
	c0.113-0.393,0.245-0.78,0.368-1.17c0.216-0.685,0.409-1.377,0.655-2.051c0.26-0.715,0.557-1.416,0.86-2.113
	c0.315-0.722,0.617-1.454,0.995-2.144c0.537-0.981,1.112-1.945,1.718-2.887c0.549-0.853,1.138-1.682,1.752-2.49
	c0.486-0.641,1.026-1.242,1.564-1.843c0.55-0.613,1.102-1.229,1.698-1.798c0.701-0.666,1.436-1.3,2.183-1.916
	c0.654-0.54,1.328-1.062,2.024-1.547c0.787-0.549,1.601-1.062,2.417-1.567c0.539-0.334,1.09-0.652,1.658-0.933
	c0.816-0.402,1.65-0.772,2.483-1.141c0.559-0.245,1.128-0.472,1.698-0.69c0.399-0.154,0.806-0.287,1.212-0.421
	c0.408-0.136,0.816-0.276,1.232-0.388c0.542-0.146,1.093-0.265,1.64-0.395c0.513-0.122,1.021-0.266,1.539-0.36
	c0.622-0.114,1.254-0.175,1.878-0.281c1.02-0.173,2.045-0.259,3.078-0.269c0.082-0.001,0.164-0.034,0.245-0.052
	c0.974,0,1.949,0,2.923,0c0.019,0.016,0.036,0.046,0.056,0.047c0.494,0.027,0.989,0.049,1.483,0.075
	c0.31,0.016,0.622,0.021,0.929,0.062c0.543,0.07,1.082,0.162,1.623,0.25c0.608,0.1,1.222,0.184,1.824,0.313
	c0.67,0.144,1.332,0.32,1.994,0.498c0.666,0.18,1.332,0.361,1.99,0.57c0.551,0.177,1.096,0.376,1.629,0.599
	c0.998,0.419,1.996,0.836,2.971,1.302c0.736,0.354,1.465,0.739,2.15,1.184c1.236,0.803,2.445,1.649,3.652,2.497
	c1.131,0.794,2.145,1.729,3.121,2.699c0.742,0.734,1.455,1.5,2.131,2.294c0.695,0.814,1.381,1.646,1.984,2.531
	c0.797,1.17,1.543,2.382,2.256,3.608c0.457,0.787,0.826,1.626,1.209,2.454c0.229,0.492,0.406,1.009,0.607,1.515
	c0.115,0.292,0.234,0.582,0.338,0.877c0.162,0.461,0.322,0.925,0.469,1.392c0.117,0.377,0.221,0.759,0.322,1.141
	c0.115,0.431,0.23,0.861,0.328,1.296c0.123,0.559,0.23,1.12,0.342,1.681c0.07,0.352,0.148,0.702,0.197,1.057
	c0.055,0.386,0.08,0.776,0.115,1.164c0.055,0.582,0.113,1.165,0.156,1.748c0.018,0.226-0.002,0.452,0.006,0.678
	c0.006,0.136,0.033,0.271,0.051,0.406C106.234,70.508,106.234,71.23,106.234,71.951z"/>
<g>
</g>
<g>
</g>
<g>
</g>
<g>
</g>
<g>
</g>
<g>
</g>
</svg>
