<?xml version="1.0" standalone="no"?>
<!DOCTYPE svg PUBLIC "-//W3C//DTD SVG 20010904//EN"
 "http://www.w3.org/TR/2001/REC-SVG-20010904/DTD/svg10.dtd">
<svg version="1.0" xmlns="http://www.w3.org/2000/svg"
 width="500.000000pt" height="500.000000pt" viewBox="0 0 500.000000 500.000000"
 preserveAspectRatio="xMidYMid meet">
<metadata>
Created by potrace 1.11, written by Peter Selinger 2001-2013
</metadata>
<g transform="translate(0.000000,500.000000) scale(0.100000,-0.100000)"
fill="#000000" stroke="none">
<path d="M2270 4963 c-267 -36 -425 -71 -589 -128 -370 -129 -691 -331 -961
-604 -286 -289 -471 -592 -600 -982 -54 -165 -64 -206 -94 -409 -17 -115 -21
-186 -21 -345 1 -110 5 -225 9 -255 4 -30 9 -73 12 -95 3 -22 7 -47 9 -55 2
-8 7 -35 10 -60 13 -90 92 -354 142 -473 66 -158 208 -404 314 -543 103 -136
87 -135 192 -24 49 52 97 112 106 132 9 20 39 61 68 91 28 29 61 75 74 101 25
53 51 69 141 86 29 6 60 18 70 27 25 23 147 204 190 283 35 63 52 101 99 225
13 33 27 66 32 73 14 19 -18 49 -51 48 -20 -1 -28 -7 -30 -24 -5 -32 -33 -44
-66 -27 -15 8 -33 14 -39 12 -22 -4 -19 57 3 81 15 16 19 27 12 35 -16 20 4
53 47 76 23 11 46 21 52 21 6 0 26 -16 43 -35 l32 -35 20 23 c10 12 19 27 20
32 0 6 4 27 8 47 6 26 3 52 -10 90 -9 29 -19 67 -20 83 -2 17 -5 48 -7 70 -4
36 6 86 28 138 5 12 2 17 -9 17 -9 0 -16 -8 -16 -20 0 -11 -7 -23 -15 -26 -8
-4 -15 -14 -15 -24 0 -10 -6 -25 -13 -32 -8 -7 -12 -19 -9 -26 2 -7 -6 -12
-20 -12 -26 0 -68 37 -68 60 0 7 -7 21 -15 30 -9 10 -17 27 -20 39 -2 12 -13
33 -24 48 -12 14 -21 32 -21 39 0 8 -4 14 -10 14 -5 0 -12 12 -16 28 -12 54
-16 62 -29 62 -8 0 -11 -7 -8 -19 7 -29 -38 -71 -68 -64 -13 3 -21 2 -16 -2 9
-10 -21 -45 -38 -45 -12 0 -45 -57 -45 -78 0 -16 -30 -23 -50 -12 -52 28 -61
70 -24 111 13 14 13 18 -1 29 -23 19 -18 42 21 83 19 20 32 37 28 37 -3 0 -1
7 6 15 7 8 9 15 4 16 -52 4 -88 35 -90 76 -1 23 -5 28 -25 28 -15 -1 -29 8
-37 22 -7 13 -19 23 -28 23 -8 0 -20 11 -26 25 -6 13 -19 27 -29 30 -26 8 -30
31 -9 50 14 13 23 14 39 6 14 -8 28 -8 48 0 15 6 42 8 60 4 18 -3 42 -1 54 6
21 11 21 11 -7 28 -18 11 -42 16 -64 14 -61 -7 -112 69 -82 123 6 12 11 34 10
50 0 16 3 52 7 79 6 42 4 54 -13 75 -17 20 -23 23 -33 13 -23 -23 -36 -14 -49
33 -12 42 -11 50 8 90 26 52 52 57 96 19 38 -32 48 -32 70 7 18 29 18 32 2 43
-9 7 -26 10 -39 8 -29 -6 -53 21 -60 69 -5 31 -2 40 14 48 10 6 19 9 19 6 0
-3 13 -1 28 5 22 7 31 19 40 55 10 38 18 48 49 60 21 9 49 13 65 10 24 -5 36
1 69 33 l40 38 -20 24 c-18 23 -20 23 -53 8 -32 -16 -35 -16 -57 2 -13 11 -29
19 -36 19 -31 0 -26 58 6 79 18 11 24 9 43 -13 25 -29 48 -33 66 -11 17 21 23
19 60 -15 18 -16 40 -30 50 -30 10 0 23 -7 30 -15 7 -8 18 -15 24 -15 19 0 59
68 53 90 -3 12 4 34 17 53 17 25 20 38 13 54 -16 35 -2 56 31 47 15 -4 37 -8
49 -9 12 -1 33 -15 45 -31 12 -16 28 -35 35 -42 11 -11 16 -34 12 -58 0 -3 6
-15 14 -27 24 -37 30 -83 13 -100 -18 -17 -11 -27 20 -27 17 0 29 13 51 56 15
31 39 64 53 73 32 20 41 34 30 45 -5 5 -5 16 0 26 5 9 5 22 0 30 -7 11 -13 7
-27 -18 -10 -18 -21 -32 -25 -32 -14 0 -18 19 -8 44 9 25 -2 46 -15 26 -3 -5
-11 -10 -17 -10 -6 0 -3 9 6 19 22 24 80 18 112 -10 11 -11 23 -17 26 -13 3 3
25 -13 49 -35 37 -36 48 -41 90 -41 29 0 53 6 63 15 8 8 26 15 40 15 21 0 26
-5 26 -25 0 -22 4 -25 33 -25 42 0 66 -25 78 -80 7 -30 6 -48 -5 -69 -8 -15
-12 -37 -9 -49 4 -16 -2 -24 -25 -36 -66 -34 -111 -97 -59 -82 12 4 31 9 42
11 10 3 51 20 90 39 65 32 105 46 245 82 89 23 107 25 275 30 104 3 178 0 215
-8 30 -6 60 -10 65 -9 54 15 115 -3 146 -43 11 -14 30 -28 42 -32 106 -33 334
-176 455 -286 21 -19 54 -55 73 -79 19 -24 36 -46 39 -49 18 -16 86 -130 110
-183 48 -107 147 -401 221 -656 10 -35 25 -73 32 -85 8 -11 106 -79 218 -151
304 -193 454 -292 467 -308 32 -38 -97 -144 -228 -186 -41 -14 -99 -40 -128
-58 -148 -95 -314 -127 -460 -89 -33 8 -98 33 -144 56 -45 22 -86 40 -89 40
-4 0 0 -21 8 -47 24 -76 32 -138 36 -284 5 -149 -4 -195 -44 -229 -44 -37 -58
-37 -196 -1 -52 14 -91 -26 -107 -108 -9 -49 -32 -71 -76 -71 -35 0 -36 -2
-32 -29 5 -37 -27 -61 -83 -61 -57 0 -108 -28 -118 -65 -36 -126 -123 -195
-226 -180 -49 7 -310 142 -380 197 -24 18 -24 18 -55 -15 -17 -18 -52 -47 -77
-64 -25 -18 -57 -47 -71 -65 -27 -36 -78 -121 -78 -131 0 -3 20 -29 45 -58 55
-65 75 -107 115 -244 18 -61 64 -186 103 -279 l72 -169 115 6 c130 7 163 11
270 33 41 9 89 18 105 20 53 8 236 64 350 106 225 83 493 238 695 402 253 204
496 507 640 795 88 176 194 475 215 606 3 17 10 50 15 75 37 176 44 542 15
770 -11 82 -50 254 -81 359 -97 318 -230 572 -444 841 -242 305 -618 589 -970
733 -25 11 -58 25 -75 32 -87 37 -366 113 -475 129 -25 4 -58 9 -75 12 -102
16 -192 21 -365 21 -107 0 -206 -2 -220 -4z"/>
</g>
</svg>
